<svg width="431" height="316" viewBox="0 0 431 316" fill="none" xmlns="http://www.w3.org/2000/svg">
<g filter="url(#filter0_d_1_462)">
<rect width="369" height="254" transform="translate(31 27)" fill="#F9FAFC"/>
<rect width="369" height="254" transform="translate(31 27)" fill="#F9FAFC"/>
<rect x="31" y="27" width="369" height="254" fill="white"/>
<path d="M258.281 71.0156C258.281 70.1615 258.042 69.4844 257.562 68.9844C257.094 68.474 256.292 68.0052 255.156 67.5781C254.021 67.151 253.042 66.7292 252.219 66.3125C251.396 65.8854 250.688 65.401 250.094 64.8594C249.51 64.3073 249.052 63.6615 248.719 62.9219C248.396 62.1823 248.234 61.3021 248.234 60.2812C248.234 58.5208 248.797 57.0781 249.922 55.9531C251.047 54.8281 252.542 54.1719 254.406 53.9844V50.6406H256.906V54.0312C258.75 54.2917 260.193 55.0625 261.234 56.3438C262.276 57.6146 262.797 59.2656 262.797 61.2969H258.281C258.281 60.0469 258.021 59.1146 257.5 58.5C256.99 57.875 256.302 57.5625 255.438 57.5625C254.583 57.5625 253.922 57.8073 253.453 58.2969C252.984 58.776 252.75 59.4427 252.75 60.2969C252.75 61.0885 252.979 61.724 253.438 62.2031C253.896 62.6823 254.745 63.1719 255.984 63.6719C257.234 64.1719 258.26 64.6458 259.062 65.0938C259.865 65.5312 260.542 66.0312 261.094 66.5938C261.646 67.1458 262.068 67.7812 262.359 68.5C262.651 69.2083 262.797 70.0365 262.797 70.9844C262.797 72.7552 262.245 74.1927 261.141 75.2969C260.036 76.401 258.516 77.0521 256.578 77.25V80.3594H254.094V77.2656C251.958 77.0365 250.302 76.2812 249.125 75C247.958 73.7083 247.375 71.9948 247.375 69.8594H251.891C251.891 71.099 252.182 72.0521 252.766 72.7188C253.359 73.375 254.208 73.7031 255.312 73.7031C256.229 73.7031 256.953 73.4635 257.484 72.9844C258.016 72.4948 258.281 71.8385 258.281 71.0156ZM280.688 60.2969C280.688 61.401 280.411 62.3802 279.859 63.2344C279.307 64.0885 278.547 64.7708 277.578 65.2812C278.682 65.8125 279.557 66.5469 280.203 67.4844C280.849 68.4115 281.172 69.5052 281.172 70.7656C281.172 72.7865 280.484 74.3854 279.109 75.5625C277.734 76.7292 275.865 77.3125 273.5 77.3125C271.135 77.3125 269.26 76.724 267.875 75.5469C266.49 74.3698 265.797 72.776 265.797 70.7656C265.797 69.5052 266.12 68.4062 266.766 67.4688C267.411 66.5312 268.281 65.8021 269.375 65.2812C268.406 64.7708 267.646 64.0885 267.094 63.2344C266.552 62.3802 266.281 61.401 266.281 60.2969C266.281 58.3594 266.927 56.8177 268.219 55.6719C269.51 54.5156 271.266 53.9375 273.484 53.9375C275.693 53.9375 277.443 54.5104 278.734 55.6562C280.036 56.7917 280.688 58.3385 280.688 60.2969ZM276.641 70.4375C276.641 69.4479 276.354 68.6562 275.781 68.0625C275.208 67.4688 274.438 67.1719 273.469 67.1719C272.51 67.1719 271.745 67.4688 271.172 68.0625C270.599 68.6458 270.312 69.4375 270.312 70.4375C270.312 71.4062 270.594 72.1875 271.156 72.7812C271.719 73.375 272.5 73.6719 273.5 73.6719C274.479 73.6719 275.245 73.3854 275.797 72.8125C276.359 72.2396 276.641 71.4479 276.641 70.4375ZM276.172 60.5156C276.172 59.6302 275.938 58.9219 275.469 58.3906C275 57.849 274.339 57.5781 273.484 57.5781C272.641 57.5781 271.984 57.8385 271.516 58.3594C271.047 58.8802 270.812 59.599 270.812 60.5156C270.812 61.4219 271.047 62.151 271.516 62.7031C271.984 63.2552 272.646 63.5312 273.5 63.5312C274.354 63.5312 275.01 63.2552 275.469 62.7031C275.938 62.151 276.172 61.4219 276.172 60.5156ZM296.484 54.0156V57.7344H296.047C294.005 57.7656 292.359 58.2969 291.109 59.3281C289.87 60.3594 289.125 61.7917 288.875 63.625C290.083 62.3958 291.609 61.7812 293.453 61.7812C295.432 61.7812 297.005 62.4896 298.172 63.9062C299.339 65.3229 299.922 67.1875 299.922 69.5C299.922 70.9792 299.599 72.3177 298.953 73.5156C298.318 74.7135 297.411 75.6458 296.234 76.3125C295.068 76.9792 293.745 77.3125 292.266 77.3125C289.87 77.3125 287.932 76.4792 286.453 74.8125C284.984 73.1458 284.25 70.9219 284.25 68.1406V66.5156C284.25 64.0469 284.714 61.8698 285.641 59.9844C286.578 58.0885 287.917 56.625 289.656 55.5938C291.406 54.5521 293.432 54.026 295.734 54.0156H296.484ZM292.078 65.4062C291.349 65.4062 290.688 65.599 290.094 65.9844C289.5 66.3594 289.062 66.8594 288.781 67.4844V68.8594C288.781 70.3698 289.078 71.5521 289.672 72.4062C290.266 73.25 291.099 73.6719 292.172 73.6719C293.141 73.6719 293.922 73.2917 294.516 72.5312C295.12 71.7604 295.422 70.7656 295.422 69.5469C295.422 68.3073 295.12 67.3073 294.516 66.5469C293.911 65.7865 293.099 65.4062 292.078 65.4062ZM303.969 82.7031L301.609 81.4688L302.172 80.4531C302.87 79.1823 303.229 77.9167 303.25 76.6562V73.1562H307.062L307.047 76.2812C307.036 77.4375 306.745 78.6042 306.172 79.7812C305.599 80.9583 304.865 81.9323 303.969 82.7031ZM320.984 67.9062C319.807 69.0625 318.432 69.6406 316.859 69.6406C314.849 69.6406 313.24 68.9531 312.031 67.5781C310.823 66.1927 310.219 64.3281 310.219 61.9844C310.219 60.4948 310.542 59.1302 311.188 57.8906C311.844 56.6406 312.755 55.6719 313.922 54.9844C315.089 54.2865 316.401 53.9375 317.859 53.9375C319.359 53.9375 320.693 54.3125 321.859 55.0625C323.026 55.8125 323.932 56.8906 324.578 58.2969C325.224 59.7031 325.552 61.3125 325.562 63.125V64.7969C325.562 68.5885 324.62 71.5677 322.734 73.7344C320.849 75.901 318.177 77.0573 314.719 77.2031L313.609 77.2188V73.4531L314.609 73.4375C318.536 73.2604 320.661 71.4167 320.984 67.9062ZM317.969 66.1875C318.698 66.1875 319.323 66 319.844 65.625C320.375 65.25 320.776 64.7969 321.047 64.2656V62.4062C321.047 60.875 320.755 59.6875 320.172 58.8438C319.589 58 318.807 57.5781 317.828 57.5781C316.922 57.5781 316.177 57.9948 315.594 58.8281C315.01 59.651 314.719 60.6875 314.719 61.9375C314.719 63.1771 315 64.1979 315.562 65C316.135 65.7917 316.938 66.1875 317.969 66.1875ZM344.391 77H328.797V73.9062L336.156 66.0625C337.167 64.9583 337.911 63.9948 338.391 63.1719C338.88 62.349 339.125 61.5677 339.125 60.8281C339.125 59.8177 338.87 59.026 338.359 58.4531C337.849 57.8698 337.12 57.5781 336.172 57.5781C335.151 57.5781 334.344 57.9323 333.75 58.6406C333.167 59.3385 332.875 60.2604 332.875 61.4062H328.344C328.344 60.0208 328.672 58.7552 329.328 57.6094C329.995 56.4635 330.932 55.5677 332.141 54.9219C333.349 54.2656 334.719 53.9375 336.25 53.9375C338.594 53.9375 340.411 54.5 341.703 55.625C343.005 56.75 343.656 58.3385 343.656 60.3906C343.656 61.5156 343.365 62.6615 342.781 63.8281C342.198 64.9948 341.198 66.3542 339.781 67.9062L334.609 73.3594H344.391V77ZM357.734 67.9062C356.557 69.0625 355.182 69.6406 353.609 69.6406C351.599 69.6406 349.99 68.9531 348.781 67.5781C347.573 66.1927 346.969 64.3281 346.969 61.9844C346.969 60.4948 347.292 59.1302 347.938 57.8906C348.594 56.6406 349.505 55.6719 350.672 54.9844C351.839 54.2865 353.151 53.9375 354.609 53.9375C356.109 53.9375 357.443 54.3125 358.609 55.0625C359.776 55.8125 360.682 56.8906 361.328 58.2969C361.974 59.7031 362.302 61.3125 362.312 63.125V64.7969C362.312 68.5885 361.37 71.5677 359.484 73.7344C357.599 75.901 354.927 77.0573 351.469 77.2031L350.359 77.2188V73.4531L351.359 73.4375C355.286 73.2604 357.411 71.4167 357.734 67.9062ZM354.719 66.1875C355.448 66.1875 356.073 66 356.594 65.625C357.125 65.25 357.526 64.7969 357.797 64.2656V62.4062C357.797 60.875 357.505 59.6875 356.922 58.8438C356.339 58 355.557 57.5781 354.578 57.5781C353.672 57.5781 352.927 57.9948 352.344 58.8281C351.76 59.651 351.469 60.6875 351.469 61.9375C351.469 63.1771 351.75 64.1979 352.312 65C352.885 65.7917 353.688 66.1875 354.719 66.1875Z" fill="#505D6F"/>
<rect x="301" y="95" width="63" height="30" rx="6" fill="#F3F5F8"/>
<path fill-rule="evenodd" clip-rule="evenodd" d="M314.364 104V112.955L311.455 110.046L310.5 111.001L315 115.501L319.5 111.001L318.545 110.046L315.636 112.955V104H314.364Z" fill="#FF6C40"/>
<path d="M334.499 115H327.677V113.646L330.896 110.215C331.339 109.732 331.664 109.31 331.874 108.95C332.088 108.59 332.195 108.248 332.195 107.925C332.195 107.483 332.084 107.136 331.86 106.886C331.637 106.631 331.318 106.503 330.903 106.503C330.457 106.503 330.104 106.658 329.844 106.968C329.589 107.273 329.461 107.676 329.461 108.178H327.479C327.479 107.572 327.622 107.018 327.909 106.517C328.201 106.015 328.611 105.623 329.14 105.341C329.668 105.054 330.268 104.91 330.938 104.91C331.963 104.91 332.758 105.156 333.323 105.648C333.893 106.141 334.178 106.836 334.178 107.733C334.178 108.226 334.05 108.727 333.795 109.237C333.54 109.748 333.102 110.342 332.482 111.021L330.22 113.407H334.499V115ZM341.561 111.254H342.688V112.847H341.561V115H339.585V112.847H335.504L335.415 111.603L339.564 105.047H341.561V111.254ZM337.384 111.254H339.585V107.74L339.455 107.966L337.384 111.254ZM343.728 106.961C343.728 106.35 343.926 105.856 344.322 105.478C344.719 105.095 345.238 104.903 345.881 104.903C346.533 104.903 347.057 105.092 347.453 105.471C347.85 105.844 348.048 106.353 348.048 106.995V107.487C348.048 108.103 347.85 108.597 347.453 108.971C347.057 109.344 346.537 109.531 345.895 109.531C345.247 109.531 344.723 109.344 344.322 108.971C343.926 108.592 343.728 108.084 343.728 107.446V106.961ZM345.04 107.487C345.04 107.761 345.118 107.982 345.272 108.15C345.432 108.314 345.639 108.396 345.895 108.396C346.15 108.396 346.353 108.312 346.503 108.144C346.653 107.975 346.729 107.749 346.729 107.467V106.961C346.729 106.688 346.653 106.466 346.503 106.298C346.353 106.129 346.145 106.045 345.881 106.045C345.63 106.045 345.427 106.129 345.272 106.298C345.118 106.462 345.04 106.692 345.04 106.988V107.487ZM348.485 112.56C348.485 111.944 348.686 111.45 349.087 111.076C349.488 110.698 350.007 110.509 350.646 110.509C351.293 110.509 351.814 110.696 352.211 111.069C352.612 111.438 352.812 111.949 352.812 112.601V113.093C352.812 113.703 352.617 114.198 352.225 114.576C351.833 114.95 351.311 115.137 350.659 115.137C350.003 115.137 349.477 114.948 349.08 114.569C348.684 114.191 348.485 113.69 348.485 113.065V112.56ZM349.798 113.093C349.798 113.343 349.88 113.558 350.044 113.735C350.208 113.913 350.413 114.002 350.659 114.002C351.215 114.002 351.493 113.694 351.493 113.079V112.56C351.493 112.286 351.416 112.067 351.261 111.903C351.106 111.735 350.901 111.65 350.646 111.65C350.39 111.65 350.185 111.735 350.03 111.903C349.875 112.067 349.798 112.293 349.798 112.58V113.093ZM346.284 114.255L345.32 113.735L350.181 105.956L351.145 106.476L346.284 114.255Z" fill="#505D6F"/>
<path d="M71.0879 63.5635C69.9622 63.2399 69.1419 62.8434 68.627 62.374C68.1165 61.9001 67.8613 61.3167 67.8613 60.624C67.8613 59.8402 68.1735 59.193 68.7979 58.6826C69.4268 58.1676 70.2425 57.9102 71.2451 57.9102C71.9287 57.9102 72.5371 58.0423 73.0703 58.3066C73.6081 58.571 74.0228 58.9355 74.3145 59.4004C74.6107 59.8652 74.7588 60.3734 74.7588 60.9248H73.4395C73.4395 60.3232 73.248 59.8516 72.8652 59.5098C72.4824 59.1634 71.9424 58.9902 71.2451 58.9902C70.598 58.9902 70.0921 59.1338 69.7275 59.4209C69.3675 59.7035 69.1875 60.0977 69.1875 60.6035C69.1875 61.0091 69.3584 61.3532 69.7002 61.6357C70.0465 61.9137 70.6322 62.1689 71.457 62.4014C72.2865 62.6338 72.9336 62.8913 73.3984 63.1738C73.8678 63.4518 74.2142 63.7777 74.4375 64.1514C74.6654 64.5251 74.7793 64.9648 74.7793 65.4707C74.7793 66.2773 74.4648 66.9245 73.8359 67.4121C73.207 67.8952 72.3662 68.1367 71.3135 68.1367C70.6299 68.1367 69.9919 68.0068 69.3994 67.7471C68.807 67.4827 68.349 67.1227 68.0254 66.667C67.7064 66.2113 67.5469 65.694 67.5469 65.1152H68.8662C68.8662 65.7168 69.0872 66.193 69.5293 66.5439C69.9759 66.8903 70.5706 67.0635 71.3135 67.0635C72.0062 67.0635 72.5371 66.9222 72.9062 66.6396C73.2754 66.3571 73.46 65.972 73.46 65.4844C73.46 64.9967 73.2891 64.6208 72.9473 64.3564C72.6055 64.0876 71.9857 63.8232 71.0879 63.5635ZM82.5176 64.3838C82.5176 65.5094 82.2601 66.4163 81.7451 67.1045C81.2301 67.7926 80.5329 68.1367 79.6533 68.1367C78.7555 68.1367 78.0492 67.8519 77.5342 67.2822V70.8438H76.2695V60.6035H77.4248L77.4863 61.4238C78.0013 60.7858 78.7168 60.4668 79.6328 60.4668C80.5215 60.4668 81.2233 60.8018 81.7383 61.4717C82.2578 62.1416 82.5176 63.0736 82.5176 64.2676V64.3838ZM81.2529 64.2402C81.2529 63.4062 81.0752 62.7477 80.7197 62.2646C80.3643 61.7816 79.8766 61.54 79.2568 61.54C78.4912 61.54 77.917 61.8796 77.5342 62.5586V66.0928C77.9124 66.7673 78.4912 67.1045 79.2705 67.1045C79.8766 67.1045 80.3574 66.8652 80.7129 66.3867C81.0729 65.9036 81.2529 65.1882 81.2529 64.2402ZM87.2002 68.1367C86.1976 68.1367 85.3818 67.8086 84.7529 67.1523C84.124 66.4915 83.8096 65.6097 83.8096 64.5068V64.2744C83.8096 63.5407 83.9486 62.8867 84.2266 62.3125C84.5091 61.7337 84.901 61.2826 85.4023 60.959C85.9082 60.6309 86.4551 60.4668 87.043 60.4668C88.0046 60.4668 88.752 60.7835 89.2852 61.417C89.8184 62.0505 90.085 62.9574 90.085 64.1377V64.6641H85.0742C85.0924 65.3932 85.3044 65.9834 85.71 66.4346C86.1201 66.8812 86.6396 67.1045 87.2686 67.1045C87.7152 67.1045 88.0934 67.0133 88.4033 66.8311C88.7132 66.6488 88.9844 66.4072 89.2168 66.1064L89.9893 66.708C89.3695 67.6605 88.4398 68.1367 87.2002 68.1367ZM87.043 61.5059C86.5326 61.5059 86.1042 61.6927 85.7578 62.0664C85.4115 62.4355 85.1973 62.9551 85.1152 63.625H88.8203V63.5293C88.7839 62.8867 88.6107 62.39 88.3008 62.0391C87.9909 61.6836 87.5716 61.5059 87.043 61.5059ZM94.5215 67.1045C94.9727 67.1045 95.3669 66.9678 95.7041 66.6943C96.0413 66.4209 96.2282 66.0791 96.2646 65.6689H97.4609C97.4382 66.0928 97.2923 66.4961 97.0234 66.8789C96.7546 67.2617 96.3945 67.5671 95.9434 67.7949C95.4967 68.0228 95.0228 68.1367 94.5215 68.1367C93.5143 68.1367 92.7122 67.8018 92.1152 67.1318C91.5228 66.4574 91.2266 65.5368 91.2266 64.3701V64.1582C91.2266 63.4382 91.3587 62.7979 91.623 62.2373C91.8874 61.6768 92.2656 61.2415 92.7578 60.9316C93.2546 60.6217 93.8402 60.4668 94.5146 60.4668C95.3441 60.4668 96.0322 60.7152 96.5791 61.2119C97.1305 61.7087 97.4245 62.3535 97.4609 63.1465H96.2646C96.2282 62.668 96.0459 62.276 95.7178 61.9707C95.3942 61.6608 94.9932 61.5059 94.5146 61.5059C93.8721 61.5059 93.373 61.7383 93.0176 62.2031C92.6667 62.6634 92.4912 63.3311 92.4912 64.2061V64.4453C92.4912 65.2975 92.6667 65.9538 93.0176 66.4141C93.3685 66.8743 93.8698 67.1045 94.5215 67.1045ZM103.189 66.0381C103.189 65.6963 103.06 65.432 102.8 65.2451C102.545 65.0537 102.096 64.8896 101.453 64.7529C100.815 64.6162 100.307 64.4521 99.9287 64.2607C99.555 64.0693 99.277 63.8415 99.0947 63.5771C98.917 63.3128 98.8281 62.9984 98.8281 62.6338C98.8281 62.0277 99.0833 61.515 99.5938 61.0957C100.109 60.6764 100.765 60.4668 101.562 60.4668C102.401 60.4668 103.08 60.6833 103.6 61.1162C104.124 61.5492 104.386 62.1029 104.386 62.7773H103.114C103.114 62.431 102.966 62.1325 102.67 61.8818C102.378 61.6312 102.009 61.5059 101.562 61.5059C101.102 61.5059 100.742 61.6061 100.482 61.8066C100.223 62.0072 100.093 62.2692 100.093 62.5928C100.093 62.8981 100.214 63.1283 100.455 63.2832C100.697 63.4382 101.132 63.5863 101.761 63.7275C102.394 63.8688 102.907 64.0374 103.299 64.2334C103.691 64.4294 103.98 64.6663 104.167 64.9443C104.358 65.2178 104.454 65.5527 104.454 65.9492C104.454 66.61 104.19 67.141 103.661 67.542C103.132 67.9385 102.447 68.1367 101.604 68.1367C101.011 68.1367 100.487 68.0319 100.031 67.8223C99.5755 67.6126 99.2178 67.321 98.958 66.9473C98.7028 66.569 98.5752 66.1611 98.5752 65.7236H99.8398C99.8626 66.1475 100.031 66.4847 100.346 66.7354C100.665 66.9814 101.084 67.1045 101.604 67.1045C102.082 67.1045 102.465 67.0088 102.752 66.8174C103.044 66.6214 103.189 66.3617 103.189 66.0381ZM114.141 68C114.068 67.8542 114.008 67.5944 113.963 67.2207C113.375 67.8314 112.673 68.1367 111.857 68.1367C111.128 68.1367 110.529 67.9316 110.06 67.5215C109.595 67.1068 109.362 66.5827 109.362 65.9492C109.362 65.179 109.654 64.582 110.237 64.1582C110.825 63.7298 111.65 63.5156 112.712 63.5156H113.942V62.9346C113.942 62.4925 113.81 62.1416 113.546 61.8818C113.282 61.6175 112.892 61.4854 112.377 61.4854C111.926 61.4854 111.548 61.5993 111.242 61.8271C110.937 62.055 110.784 62.3307 110.784 62.6543H109.513C109.513 62.2852 109.643 61.9297 109.902 61.5879C110.167 61.2415 110.522 60.9681 110.969 60.7676C111.42 60.5671 111.914 60.4668 112.452 60.4668C113.304 60.4668 113.972 60.681 114.455 61.1094C114.938 61.5332 115.189 62.1188 115.207 62.8662V66.2705C115.207 66.9495 115.294 67.4896 115.467 67.8906V68H114.141ZM112.042 67.0361C112.438 67.0361 112.814 66.9336 113.17 66.7285C113.525 66.5234 113.783 66.2568 113.942 65.9287V64.4111H112.951C111.402 64.4111 110.627 64.8646 110.627 65.7715C110.627 66.168 110.759 66.4779 111.023 66.7012C111.288 66.9245 111.627 67.0361 112.042 67.0361ZM119.521 66.2842L121.353 60.6035H122.645L119.992 68H119.028L116.349 60.6035H117.641L119.521 66.2842ZM126.835 68.1367C125.832 68.1367 125.017 67.8086 124.388 67.1523C123.759 66.4915 123.444 65.6097 123.444 64.5068V64.2744C123.444 63.5407 123.583 62.8867 123.861 62.3125C124.144 61.7337 124.536 61.2826 125.037 60.959C125.543 60.6309 126.09 60.4668 126.678 60.4668C127.639 60.4668 128.387 60.7835 128.92 61.417C129.453 62.0505 129.72 62.9574 129.72 64.1377V64.6641H124.709C124.727 65.3932 124.939 65.9834 125.345 66.4346C125.755 66.8812 126.274 67.1045 126.903 67.1045C127.35 67.1045 127.728 67.0133 128.038 66.8311C128.348 66.6488 128.619 66.4072 128.852 66.1064L129.624 66.708C129.004 67.6605 128.075 68.1367 126.835 68.1367ZM126.678 61.5059C126.167 61.5059 125.739 61.6927 125.393 62.0664C125.046 62.4355 124.832 62.9551 124.75 63.625H128.455V63.5293C128.419 62.8867 128.245 62.39 127.936 62.0391C127.626 61.6836 127.206 61.5059 126.678 61.5059ZM134.765 61.7383C134.573 61.7064 134.366 61.6904 134.143 61.6904C133.313 61.6904 132.75 62.0436 132.454 62.75V68H131.189V60.6035H132.42L132.44 61.458C132.855 60.7972 133.443 60.4668 134.204 60.4668C134.45 60.4668 134.637 60.4987 134.765 60.5625V61.7383ZM140.227 68C140.154 67.8542 140.094 67.5944 140.049 67.2207C139.461 67.8314 138.759 68.1367 137.943 68.1367C137.214 68.1367 136.615 67.9316 136.146 67.5215C135.681 67.1068 135.448 66.5827 135.448 65.9492C135.448 65.179 135.74 64.582 136.323 64.1582C136.911 63.7298 137.736 63.5156 138.798 63.5156H140.028V62.9346C140.028 62.4925 139.896 62.1416 139.632 61.8818C139.368 61.6175 138.978 61.4854 138.463 61.4854C138.012 61.4854 137.633 61.5993 137.328 61.8271C137.023 62.055 136.87 62.3307 136.87 62.6543H135.599C135.599 62.2852 135.729 61.9297 135.988 61.5879C136.253 61.2415 136.608 60.9681 137.055 60.7676C137.506 60.5671 138 60.4668 138.538 60.4668C139.39 60.4668 140.058 60.681 140.541 61.1094C141.024 61.5332 141.275 62.1188 141.293 62.8662V66.2705C141.293 66.9495 141.38 67.4896 141.553 67.8906V68H140.227ZM138.128 67.0361C138.524 67.0361 138.9 66.9336 139.256 66.7285C139.611 66.5234 139.869 66.2568 140.028 65.9287V64.4111H139.037C137.488 64.4111 136.713 64.8646 136.713 65.7715C136.713 66.168 136.845 66.4779 137.109 66.7012C137.374 66.9245 137.713 67.0361 138.128 67.0361ZM142.975 64.2402C142.975 63.0872 143.241 62.1712 143.774 61.4922C144.308 60.8086 145.014 60.4668 145.894 60.4668C146.796 60.4668 147.5 60.7858 148.006 61.4238L148.067 60.6035H149.223V67.8223C149.223 68.7793 148.938 69.5335 148.368 70.085C147.803 70.6364 147.042 70.9121 146.085 70.9121C145.552 70.9121 145.03 70.7982 144.52 70.5703C144.009 70.3424 143.619 70.0303 143.351 69.6338L144.007 68.875C144.549 69.5449 145.212 69.8799 145.996 69.8799C146.611 69.8799 147.09 69.7067 147.432 69.3604C147.778 69.014 147.951 68.5264 147.951 67.8975V67.2617C147.445 67.8451 146.755 68.1367 145.88 68.1367C145.014 68.1367 144.312 67.7881 143.774 67.0908C143.241 66.3936 142.975 65.4434 142.975 64.2402ZM144.246 64.3838C144.246 65.2178 144.417 65.874 144.759 66.3525C145.101 66.8265 145.579 67.0635 146.194 67.0635C146.992 67.0635 147.577 66.7012 147.951 65.9766V62.5996C147.564 61.8932 146.983 61.54 146.208 61.54C145.593 61.54 145.112 61.7793 144.766 62.2578C144.419 62.7363 144.246 63.445 144.246 64.3838ZM154.206 68.1367C153.203 68.1367 152.388 67.8086 151.759 67.1523C151.13 66.4915 150.815 65.6097 150.815 64.5068V64.2744C150.815 63.5407 150.954 62.8867 151.232 62.3125C151.515 61.7337 151.907 61.2826 152.408 60.959C152.914 60.6309 153.461 60.4668 154.049 60.4668C155.01 60.4668 155.758 60.7835 156.291 61.417C156.824 62.0505 157.091 62.9574 157.091 64.1377V64.6641H152.08C152.098 65.3932 152.31 65.9834 152.716 66.4346C153.126 66.8812 153.646 67.1045 154.274 67.1045C154.721 67.1045 155.099 67.0133 155.409 66.8311C155.719 66.6488 155.99 66.4072 156.223 66.1064L156.995 66.708C156.375 67.6605 155.446 68.1367 154.206 68.1367ZM154.049 61.5059C153.538 61.5059 153.11 61.6927 152.764 62.0664C152.417 62.4355 152.203 62.9551 152.121 63.625H155.826V63.5293C155.79 62.8867 155.617 62.39 155.307 62.0391C154.997 61.6836 154.577 61.5059 154.049 61.5059ZM165.608 61.7383C165.417 61.7064 165.21 61.6904 164.986 61.6904C164.157 61.6904 163.594 62.0436 163.298 62.75V68H162.033V60.6035H163.264L163.284 61.458C163.699 60.7972 164.287 60.4668 165.048 60.4668C165.294 60.4668 165.481 60.4987 165.608 60.5625V61.7383ZM171.07 68C170.997 67.8542 170.938 67.5944 170.893 67.2207C170.305 67.8314 169.603 68.1367 168.787 68.1367C168.058 68.1367 167.459 67.9316 166.989 67.5215C166.524 67.1068 166.292 66.5827 166.292 65.9492C166.292 65.179 166.584 64.582 167.167 64.1582C167.755 63.7298 168.58 63.5156 169.642 63.5156H170.872V62.9346C170.872 62.4925 170.74 62.1416 170.476 61.8818C170.211 61.6175 169.822 61.4854 169.307 61.4854C168.855 61.4854 168.477 61.5993 168.172 61.8271C167.867 62.055 167.714 62.3307 167.714 62.6543H166.442C166.442 62.2852 166.572 61.9297 166.832 61.5879C167.096 61.2415 167.452 60.9681 167.898 60.7676C168.35 60.5671 168.844 60.4668 169.382 60.4668C170.234 60.4668 170.902 60.681 171.385 61.1094C171.868 61.5332 172.118 62.1188 172.137 62.8662V66.2705C172.137 66.9495 172.223 67.4896 172.396 67.8906V68H171.07ZM168.972 67.0361C169.368 67.0361 169.744 66.9336 170.1 66.7285C170.455 66.5234 170.713 66.2568 170.872 65.9287V64.4111H169.881C168.331 64.4111 167.557 64.8646 167.557 65.7715C167.557 66.168 167.689 66.4779 167.953 66.7012C168.217 66.9245 168.557 67.0361 168.972 67.0361ZM175.835 58.8125V60.6035H177.216V61.5811H175.835V66.168C175.835 66.4642 175.896 66.6875 176.02 66.8379C176.143 66.9837 176.352 67.0566 176.648 67.0566C176.794 67.0566 176.995 67.0293 177.25 66.9746V68C176.917 68.0911 176.594 68.1367 176.279 68.1367C175.714 68.1367 175.288 67.9658 175.001 67.624C174.714 67.2822 174.57 66.7969 174.57 66.168V61.5811H173.224V60.6035H174.57V58.8125H175.835ZM181.769 68.1367C180.766 68.1367 179.95 67.8086 179.321 67.1523C178.692 66.4915 178.378 65.6097 178.378 64.5068V64.2744C178.378 63.5407 178.517 62.8867 178.795 62.3125C179.077 61.7337 179.469 61.2826 179.971 60.959C180.477 60.6309 181.023 60.4668 181.611 60.4668C182.573 60.4668 183.32 60.7835 183.854 61.417C184.387 62.0505 184.653 62.9574 184.653 64.1377V64.6641H179.643C179.661 65.3932 179.873 65.9834 180.278 66.4346C180.688 66.8812 181.208 67.1045 181.837 67.1045C182.284 67.1045 182.662 67.0133 182.972 66.8311C183.282 66.6488 183.553 66.4072 183.785 66.1064L184.558 66.708C183.938 67.6605 183.008 68.1367 181.769 68.1367ZM181.611 61.5059C181.101 61.5059 180.673 61.6927 180.326 62.0664C179.98 62.4355 179.766 62.9551 179.684 63.625H183.389V63.5293C183.352 62.8867 183.179 62.39 182.869 62.0391C182.559 61.6836 182.14 61.5059 181.611 61.5059Z" fill="#9AA1A9"/>
<rect x="31" y="133" width="369" height="148" fill="white"/>
<g clip-path="url(#clip0_1_462)">
<path fill-rule="evenodd" clip-rule="evenodd" d="M322.413 193.782C322.413 190.109 325.391 187.131 329.064 187.131C332.738 187.131 335.716 190.109 335.716 193.782V247.327H322.413V193.782Z" fill="#FFE700"/>
<path fill-rule="evenodd" clip-rule="evenodd" d="M279.844 207.511C279.844 203.838 282.822 200.86 286.495 200.86C290.169 200.86 293.147 203.838 293.147 207.511V247.327H279.844V207.511Z" fill="#FFE700"/>
<path d="M343.697 203.287C343.697 199.613 346.675 196.635 350.349 196.635C354.022 196.635 357 199.613 357 203.287V247.327H343.697V203.287Z" fill="#FFE700"/>
<path fill-rule="evenodd" clip-rule="evenodd" d="M301.128 226.521C301.128 222.847 304.106 219.869 307.78 219.869C311.453 219.869 314.431 222.847 314.431 226.521V247.327H301.128V226.521Z" fill="#FFE700"/>
<path fill-rule="evenodd" clip-rule="evenodd" d="M237.275 193.782C237.275 190.109 240.253 187.131 243.927 187.131C247.6 187.131 250.578 190.109 250.578 193.782V247.327H237.275V193.782Z" fill="#FFE700"/>
<path d="M215.991 210.679C215.991 207.006 218.969 204.028 222.642 204.028C226.316 204.028 229.294 207.006 229.294 210.679V247.327H215.991V210.679Z" fill="#FFE700"/>
<path d="M194.706 175.301C194.706 171.627 197.684 168.65 201.358 168.65C205.031 168.65 208.009 171.627 208.009 175.301V247.327H194.706V175.301Z" fill="#F3F5F8"/>
<path d="M173.422 210.679C173.422 207.006 176.4 204.028 180.073 204.028C183.747 204.028 186.725 207.006 186.725 210.679V247.327H173.422V210.679Z" fill="#FFE700"/>
<path d="M152.138 193.782C152.138 190.109 155.116 187.131 158.789 187.131C162.463 187.131 165.44 190.109 165.44 193.782V247.327H152.138V193.782Z" fill="#FFE700"/>
<path fill-rule="evenodd" clip-rule="evenodd" d="M130.853 153.651C130.853 149.978 133.831 147 137.505 147C141.178 147 144.156 149.978 144.156 153.651V247.327H130.853V153.651Z" fill="#FFE700"/>
<path d="M109.569 180.053C109.569 176.38 112.547 173.402 116.22 173.402C119.894 173.402 122.872 176.38 122.872 180.053V247.327H109.569V180.053Z" fill="#FFE700"/>
<path d="M88.2844 210.679C88.2844 207.006 91.2623 204.028 94.9358 204.028C98.6093 204.028 101.587 207.006 101.587 210.679V247.327H88.2844V210.679Z" fill="#FFE700"/>
<path fill-rule="evenodd" clip-rule="evenodd" d="M67 193.782C67 190.109 69.9779 187.131 73.6514 187.131C77.3248 187.131 80.3028 190.109 80.3028 193.782V247.327H67V193.782Z" fill="#FFE700"/>
<path fill-rule="evenodd" clip-rule="evenodd" d="M258.56 210.679C258.56 207.006 261.537 204.028 265.211 204.028C268.884 204.028 271.862 207.006 271.862 210.679V247.327H258.56V210.679Z" fill="#FFE700"/>
</g>
</g>
<defs>
<filter id="filter0_d_1_462" x="0" y="0" width="431" height="316" filterUnits="userSpaceOnUse" color-interpolation-filters="sRGB">
<feFlood flood-opacity="0" result="BackgroundImageFix"/>
<feColorMatrix in="SourceAlpha" type="matrix" values="0 0 0 0 0 0 0 0 0 0 0 0 0 0 0 0 0 0 127 0" result="hardAlpha"/>
<feOffset dy="4"/>
<feGaussianBlur stdDeviation="15.5"/>
<feColorMatrix type="matrix" values="0 0 0 0 0 0 0 0 0 0 0 0 0 0 0 0 0 0 0.15 0"/>
<feBlend mode="normal" in2="BackgroundImageFix" result="effect1_dropShadow_1_462"/>
<feBlend mode="normal" in="SourceGraphic" in2="effect1_dropShadow_1_462" result="shape"/>
</filter>
<clipPath id="clip0_1_462">
<rect width="290" height="113" fill="white" transform="translate(67 147)"/>
</clipPath>
</defs>
</svg>
