<svg width="993" height="302" viewBox="0 0 993 302" fill="none" xmlns="http://www.w3.org/2000/svg">
<g clip-path="url(#clip0_1_520)">
<path d="M41.8537 187.593L16.5188 178.258C16.1455 178.12 15.7329 178.136 15.3717 178.303C15.0105 178.47 14.7303 178.773 14.5927 179.146L5.25754 204.481C5.11999 204.855 5.13636 205.267 5.30306 205.628C5.46975 205.99 5.77312 206.27 6.14641 206.407L31.4813 215.743C31.8545 215.88 32.2672 215.864 32.6284 215.697C32.9896 215.53 33.2698 215.227 33.4074 214.854L42.7425 189.519C42.8801 189.146 42.8637 188.733 42.697 188.372C42.5303 188.01 42.227 187.73 41.8537 187.593ZM31.111 212.409L8.59114 204.111L16.8891 181.591L39.4089 189.889L31.111 212.409Z" fill="#18F4CD"/>
</g>
<path d="M148 7.7V0H140.067V2.75H121.933V0H114V7.7H116.833V25.3H114V33H121.933V30.25H140.067V33H148V25.3H145.167V7.7H148ZM142.333 2.2H145.733V5.5H142.333V2.2ZM116.267 5.5V2.2H119.667V5.5H116.267ZM119.667 30.8H116.267V27.5H119.667V30.8ZM145.733 27.5V30.8H142.333V27.5H145.733ZM142.9 23.1V25.3H140.067V28.05H121.933V25.3H119.1V7.7H121.933V4.95H140.067V7.7H142.9V23.1Z" fill="#FF1E10"/>
<path d="M129.845 10.891L126.052 20.5H128.169L128.9 18.648H133.101L133.832 20.5H135.949L132.156 10.891H129.845ZM129.676 16.679L131 13.326L132.324 16.679H129.676Z" fill="#FF1E10"/>
<path d="M872.696 87.8119L876.357 31.9031L922.177 64.1478L872.696 87.8119ZM916.937 63.676L878.675 36.7502L875.618 83.4366L916.937 63.676Z" fill="#EF1454"/>
<g clip-path="url(#clip1_1_520)">
<path d="M965.386 241.657L972.754 239.253L974.356 244.165L966.988 246.569L969.391 253.937L964.479 255.539L962.076 248.171L954.708 250.574L953.106 245.662L960.474 243.259L958.07 235.891L962.982 234.289L965.386 241.657ZM969.285 270.275L966.882 262.907L971.794 261.305L975.8 273.584L936.504 286.402L926.09 254.474L945.738 248.065L947.34 252.977L932.604 257.784L939.814 279.887L969.285 270.275Z" fill="#29FEE4"/>
</g>
<circle cx="685.5" cy="204.5" r="28" stroke="#FFBC11" stroke-width="5"/>
<defs>
<clipPath id="clip0_1_520">
<rect width="36" height="36" fill="white" transform="translate(13.3335 173.887) rotate(20.2274)"/>
</clipPath>
<clipPath id="clip1_1_520">
<rect width="62" height="62" fill="white" transform="translate(913.915 242.141) rotate(-18.0648)"/>
</clipPath>
</defs>
</svg>
